<!-- icon666.com - MILLIONS vector ICONS FREE --><svg id="Layer_1" enable-background="new 0 0 2500 2500" viewBox="0 0 2500 2500" xmlns="http://www.w3.org/2000/svg"><g id="XMLID_3_"><g><path d="m1100.6 886.2c119.3 0 216.4 96.9 216.4 216s-97.1 216-216.4 216-216.4-96.9-216.4-216c-.1-119.1 97-216 216.4-216z" fill="#3d9999"></path><path d="m1848.1 1763.8-81.3 81.3-322.1-322.1c-14.5-14.5-33.7-22-53.1-22-13.5 0-27.1 3.6-39.2 11.1-75.6 46.4-162.6 70.9-251.8 70.9-265.6 0-481.6-215.7-481.6-480.8s216-480.8 481.6-480.8 481.6 215.7 481.6 480.8c0 87.2-23.6 172.6-68.3 246.9-17.7 29.5-13.1 67.3 11.3 91.7zm-381.1-661.6c0-49.4-9.7-97.3-28.8-142.5-18.5-43.6-44.9-82.7-78.5-116.3s-72.8-60-116.4-78.4c-45.2-19.1-93.2-28.8-142.6-28.8s-97.4 9.7-142.6 28.8c-43.6 18.4-82.8 44.8-116.5 78.4-33.6 33.6-60.1 72.7-78.5 116.3-19.1 45.2-28.8 93.1-28.8 142.5s9.7 97.3 28.8 142.5c18.5 43.6 44.9 82.7 78.5 116.3s72.8 60 116.5 78.4c45.2 19.1 93.2 28.8 142.6 28.8s97.4-9.7 142.6-28.8c43.6-18.4 82.8-44.8 116.4-78.4s60.1-72.7 78.5-116.3c19.1-45.1 28.8-93.1 28.8-142.5z" fill="#d8ebeb"></path><path d="m2275 483.5v1535c0 142-115.5 257.5-257.5 257.5h-1535c-142 0-257.5-115.5-257.5-257.5v-1535c0-142 115.5-257.5 257.5-257.5h1535c142 0 257.5 115.5 257.5 257.5zm-267.8 1333.3c29.3-29.3 29.3-76.8 0-106.1l-336.7-336.7c40.4-84.5 61.6-177.4 61.6-271.9 0-85.1-16.7-167.8-49.7-245.6-31.8-75.1-77.4-142.6-135.3-200.5-58-57.9-125.5-103.4-200.7-135.1-77.9-32.9-160.6-49.6-245.8-49.6s-167.9 16.7-245.8 49.6c-75.3 31.9-142.8 77.4-200.8 135.3s-103.5 125.4-135.3 200.5c-33 77.8-49.7 160.5-49.7 245.6s16.7 167.8 49.7 245.6c31.8 75.1 77.4 142.6 135.3 200.5 58 57.9 125.5 103.4 200.7 135.1 77.9 32.9 160.6 49.6 245.8 49.6 96.8 0 191.7-22.1 277.8-64.2l335.4 335.4c14.6 14.7 33.8 22 53 22s38.4-7.3 53-22z" fill="#3d9999"></path><path d="m2425 483.5v1535c0 55-10.8 108.4-32.1 158.6-20.5 48.5-49.9 92.1-87.3 129.5s-81 66.8-129.5 87.3c-50.3 21.3-103.7 32.1-158.6 32.1h-1535c-55 0-108.4-10.8-158.6-32.1-48.5-20.5-92.1-49.9-129.5-87.3s-66.8-81-87.3-129.5c-21.3-50.2-32.1-103.6-32.1-158.6v-1535c0-55 10.8-108.4 32.1-158.6 20.5-48.5 49.9-92.1 87.3-129.5s81-66.8 129.5-87.3c50.2-21.3 103.6-32.1 158.6-32.1h1535c55 0 108.4 10.8 158.6 32.1 48.5 20.5 92.1 49.9 129.5 87.3s66.8 81 87.3 129.5c21.3 50.2 32.1 103.6 32.1 158.6zm-150 1535v-1535c0-142-115.5-257.5-257.5-257.5h-1535c-142 0-257.5 115.5-257.5 257.5v1535c0 142 115.5 257.5 257.5 257.5h1535c142 0 257.5-115.5 257.5-257.5z"></path><path d="m2007.2 1710.8c29.3 29.3 29.3 76.8 0 106.1l-187.4 187.4c-14.6 14.7-33.8 22-53 22s-38.4-7.3-53-22l-335.4-335.4c-86.1 42.1-181 64.2-277.8 64.2-85.2 0-167.9-16.7-245.8-49.6-75.2-31.8-142.7-77.2-200.7-135.1s-103.5-125.4-135.3-200.5c-33-77.8-49.7-160.5-49.7-245.6s16.7-167.8 49.7-245.6c31.7-75.2 77.2-142.6 135.2-200.5s125.5-103.4 200.7-135.1c77.9-32.9 160.6-49.6 245.8-49.6s167.9 16.7 245.8 49.6c75.2 31.8 142.8 77.2 200.7 135.1 58 57.9 103.5 125.4 135.3 200.5 33 77.8 49.7 160.5 49.7 245.6 0 94.5-21.2 187.4-61.6 271.9zm-240.4 134.3 81.3-81.3-323-323c-24.3-24.4-29-62.1-11.3-91.7 44.7-74.3 68.3-159.7 68.3-246.9 0-265.1-216-480.8-481.6-480.8s-481.5 215.7-481.5 480.8 216 480.8 481.6 480.8c89.2 0 176.3-24.5 251.8-70.9 12.1-7.4 25.7-11.1 39.2-11.1 19.4 0 38.6 7.5 53.1 22z"></path><path d="m1438.2 959.7c19.1 45.2 28.8 93.1 28.8 142.5s-9.7 97.3-28.8 142.5c-18.5 43.6-44.9 82.7-78.5 116.3s-72.8 60-116.4 78.4c-45.2 19.1-93.2 28.8-142.6 28.8s-97.4-9.7-142.6-28.8c-43.6-18.4-82.8-44.8-116.5-78.4-33.6-33.6-60.1-72.7-78.5-116.3-19.1-45.2-28.8-93.1-28.8-142.5s9.7-97.3 28.8-142.5c18.5-43.6 44.9-82.7 78.5-116.3s72.8-60 116.5-78.4c45.2-19.1 93.2-28.8 142.6-28.8s97.4 9.7 142.6 28.8c43.6 18.4 82.8 44.8 116.4 78.4s60 72.7 78.5 116.3zm-121.2 142.5c0-119.1-97.1-216-216.4-216s-216.4 96.9-216.4 216 97.1 216 216.4 216c119.3.1 216.4-96.9 216.4-216z"></path></g></g></svg>